<?xml version="1.0" encoding="UTF-8" standalone="no"?>
<svg
   viewBox="0 0 24 24"
   preserveAspectRatio="xMidYMid meet"
   fill="black"
   version="1.1"
   id="svg6"
   sodipodi:docname="icon.svg"
   inkscape:version="1.2 (dc2aedaf03, 2022-05-15)"
   inkscape:export-filename="icon-16.png"
   inkscape:export-xdpi="64"
   inkscape:export-ydpi="64"
   xmlns:inkscape="http://www.inkscape.org/namespaces/inkscape"
   xmlns:sodipodi="http://sodipodi.sourceforge.net/DTD/sodipodi-0.dtd"
   xmlns="http://www.w3.org/2000/svg"
   xmlns:svg="http://www.w3.org/2000/svg">
  <defs
     id="defs10" />
  <sodipodi:namedview
     id="namedview8"
     pagecolor="#505050"
     bordercolor="#ffffff"
     borderopacity="1"
     inkscape:showpageshadow="0"
     inkscape:pageopacity="0"
     inkscape:pagecheckerboard="1"
     inkscape:deskcolor="#505050"
     showgrid="false"
     showguides="true"
     inkscape:zoom="18.270833"
     inkscape:cx="7.9361461"
     inkscape:cy="15.434436"
     inkscape:window-width="1920"
     inkscape:window-height="1057"
     inkscape:window-x="-8"
     inkscape:window-y="-8"
     inkscape:window-maximized="1"
     inkscape:current-layer="g4">
    <sodipodi:guide
       position="34.098062,22.576967"
       orientation="0,-1"
       id="guide309"
       inkscape:locked="false" />
  </sodipodi:namedview>
  <g
     id="g4">
    <path
       id="path2-2"
       style="fill:#ff0000;fill-opacity:1;stroke-width:0.380376"
       d="M 7.4463124,3.7243 C 5.2077598,3.8037678 3.4401231,3.9214083 2.6577094,4.1301584 1.5236941,4.5605678 0.99984736,5.2164126 0.54335281,6.244515 0.08222798,7.9693323 0.04967295,10.922597 0.04967204,11.999933 c -9.1e-7,1.077336 0.03255586,4.0306 0.49368077,5.755418 0.35797152,0.89893 1.10016459,1.826637 2.11435659,2.114357 0.7618925,0.203274 2.4590531,0.319012 4.7089758,0.402782 2.2499234,0.08376 3.8004058,0.09352 4.6442208,0.09367 0.843816,1.47e-4 2.466232,-0.009 4.684368,-0.09344 2.218136,-0.08443 3.886954,-0.19983 4.646928,-0.403007 1.131898,-0.431228 1.659741,-1.086059 2.1151,-2.114356 0.461124,-1.724816 0.493032,-4.678076 0.493026,-5.755418 -7e-6,-1.077343 -0.03191,-4.0306032 -0.493026,-5.7554186 C 23.085118,5.3270552 22.355959,4.4171609 21.342202,4.1301584 20.570451,3.9238328 18.834846,3.8070665 16.58931,3.7252123 14.343774,3.6433583 12.830619,3.6338103 12.001243,3.6338383 11.171868,3.6338661 9.6848652,3.6448323 7.4463124,3.7243 Z"
       sodipodi:nodetypes="ccccccccccccccccc" />
    <path
       d="M 19.947548,7.7240594 H 4.0524515 V 8.5188142 H 19.947548 Z M 12.794755,11.697833 H 4.0524515 v -0.794755 h 8.7423035 z m 0,3.17902 H 4.0524515 v -0.794755 h 8.7423035 z m 1.58951,2.384264 v -6.358039 l 5.563283,3.17902 z"
       id="path2"
       style="fill:#ffffff;stroke-width:0.794755" />
  </g>
</svg>
