<?xml version="1.0" encoding="UTF-8" standalone="no"?>
<svg
   xmlns:dc="http://purl.org/dc/elements/1.1/"
   xmlns:cc="http://creativecommons.org/ns#"
   xmlns:rdf="http://www.w3.org/1999/02/22-rdf-syntax-ns#"
   xmlns:svg="http://www.w3.org/2000/svg"
   xmlns="http://www.w3.org/2000/svg"
   xmlns:sodipodi="http://sodipodi.sourceforge.net/DTD/sodipodi-0.dtd"
   xmlns:inkscape="http://www.inkscape.org/namespaces/inkscape"
   version="1.1"
   id="Layer_1"
   x="0px"
   y="0px"
   viewBox="0 0 62.860001 62.860001"
   xml:space="preserve"
   sodipodi:docname="icon-thick.svg"
   width="62.860001"
   height="62.860001"
   inkscape:version="1.0.2 (1.0.2+r75+1)"
   inkscape:export-filename="/home/dev/Development/youtube-ends-at/icons/icon-128.png"
   inkscape:export-xdpi="195.48"
   inkscape:export-ydpi="195.48"><metadata
   id="metadata11"><rdf:RDF><cc:Work
       rdf:about=""><dc:format>image/svg+xml</dc:format><dc:type
         rdf:resource="http://purl.org/dc/dcmitype/StillImage" /><dc:title></dc:title></cc:Work></rdf:RDF></metadata><defs
   id="defs9" /><sodipodi:namedview
   pagecolor="#ffffff"
   bordercolor="#666666"
   borderopacity="1"
   objecttolerance="10"
   gridtolerance="10"
   guidetolerance="10"
   inkscape:pageopacity="0"
   inkscape:pageshadow="2"
   inkscape:window-width="1920"
   inkscape:window-height="1016"
   id="namedview7"
   showgrid="false"
   showguides="true"
   inkscape:pagecheckerboard="true"
   inkscape:zoom="13.014994"
   inkscape:cx="24.821258"
   inkscape:cy="30.488687"
   inkscape:window-x="1680"
   inkscape:window-y="27"
   inkscape:window-maximized="1"
   inkscape:current-layer="Layer_1"
   inkscape:document-rotation="0"><inkscape:grid
     type="xygrid"
     id="grid73" /></sodipodi:namedview>
	 <path
   fill="#ff0000"
   d="M 61.55,16.300001 C 60.83,13.6 58.7,11.47 55.99,10.74 51.09,9.4300003 31.43,9.4300003 31.43,9.4300003 c 0,0 -19.65,0 -24.56,1.3099997 -2.7,0.72 -4.83,2.85 -5.56,5.560001 C 0,21.2 0,31.43 0,31.43 c 0,0 0,10.23 1.31,15.13 0.72,2.7 2.85,4.83 5.56,5.56 4.91,1.31 24.56,1.31 24.56,1.31 0,0 19.66,0 24.56,-1.31 2.7,-0.72 4.83,-2.85 5.56,-5.56 1.31,-4.9 1.31,-15.13 1.31,-15.13 0,0 0,-10.23 -1.31,-15.129999 z"
   class="style-scope yt-icon"
   id="path2-8"
   style="fill:#ffffff" /><path
   id="path2"
   style="fill:#ff0000;fill-opacity:1"
   d="m 29.929688,9.4339064 c -0.677026,0.0019 -4.58632,0.030727 -9.857422,0.2050781 l 1.003906,1.7382815 -1.373047,0.792969 -1.427734,-2.4726568 C 13.573163,9.8824736 8.9260874,10.191748 6.8691406,10.740547 5.0373108,11.229035 3.4750231,12.371648 2.4277344,13.89875 L 4.515625,15.103828 3.7226562,16.476875 1.6777344,15.295235 C 1.535213,15.61993 1.4043249,15.951006 1.3105469,16.299141 0.09826056,20.833645 0.01267418,28.597709 0.00585938,29.93 H 4 v 3 H 0.00585938 c 0.0068148,1.332291 0.09240118,9.096355 1.30468752,13.630859 0.1162294,0.435861 0.2852859,0.84741 0.4746093,1.248047 l 1.8242188,-1.052734 0.7929688,1.373047 -1.8222657,1.052734 c 1.0415791,1.411575 2.5423849,2.466993 4.2890625,2.9375 2.0029973,0.534404 6.4647924,0.838675 11.0390624,1.025391 l 1.550781,-2.6875 1.373047,0.792968 -1.130859,1.960938 c 5.46275,0.187334 9.538934,0.212963 10.228516,0.214844 V 49.43 h 3 v 3.996094 c 0.74716,-0.0011 5.012456,-0.02519 10.396484,-0.210938 l -1.080078,-1.871094 1.373047,-0.792968 1.498047,2.591797 c 4.487807,-0.185896 8.875092,-0.48929 10.873046,-1.023438 1.836668,-0.489778 3.397998,-1.640241 4.445313,-3.173828 l -2.222656,-1.283203 0.792968,-1.373047 2.1875,1.261719 C 61.33252,47.230857 61.458455,46.903605 61.550781,46.560859 62.763066,42.026361 62.84695,34.262308 62.853516,32.93 h -3.994141 v -3 h 3.994141 c -0.0066,-1.332308 -0.09045,-9.09636 -1.302735,-13.630859 -0.1429,-0.535877 -0.356768,-1.039781 -0.605469,-1.523438 L 58.8125,16.008125 58.019531,14.635078 60.085938,13.441719 C 59.055324,12.151837 57.635111,11.183632 55.990234,10.740547 53.961318,10.198122 49.398452,9.8911461 44.751953,9.7053907 L 43.138672,12.500313 41.765625,11.707344 42.957031,9.6409376 C 37.591531,9.4607613 33.613482,9.43566 32.929688,9.4339064 V 13.43 h -3 z m 22.634765,8.5156246 0.927735,1.578125 -20.5625,12.09375 V 33.93 h -3 V 33.387031 L 28.763672,34.072578 27.833984,32.4925 29.929688,31.260078 V 18.43 h 3 v 11.066406 z" />
</svg>
